<svg width="28" height="28" viewBox="0 0 28 28" fill="none" xmlns="http://www.w3.org/2000/svg">
<path d="M19.0171 10.8828C22.7019 12.9234 24.3867 16.6238 23.4952 20.5686C22.6185 24.4478 19.3056 27.1606 15.0248 27.3059C11.7668 27.4164 8.50203 27.3106 5.24064 27.3411C4.2961 27.35 3.98649 26.9375 4.00534 26.0416C4.04118 24.3382 4.05469 22.6323 4.00155 20.9298C3.96933 19.897 4.43876 19.6237 5.37662 19.635C8.23579 19.6697 11.0956 19.653 13.9552 19.6452C14.3989 19.644 14.8563 19.6414 15.2824 19.5369C15.7389 19.4249 16.0813 19.1172 16.0501 18.5747C16.0202 18.0539 15.7072 17.7258 15.2215 17.6638C14.6042 17.585 13.9752 17.5959 13.3511 17.5741C9.38309 17.436 6.13985 15.1717 5.0002 11.7419C3.77037 8.04071 4.81365 4.37563 7.76612 1.92715C9.40124 0.571157 11.3481 0.105141 13.378 0.0415311C16.1456 -0.0452147 18.9183 0.0482246 21.6877 0.000548104C22.7477 -0.0176848 23.1771 0.418124 23.0829 1.43584C22.9255 3.13684 22.937 4.84128 23.0239 6.5426C23.07 7.44581 22.6813 7.71696 21.8393 7.70833C19.2034 7.6813 16.567 7.69445 13.931 7.71003C13.5372 7.71236 13.1198 7.74597 12.7566 7.88179C12.2746 8.06205 12.1494 8.51165 12.2294 8.9979C12.3325 9.6248 12.8125 9.73362 13.3317 9.74485C15.26 9.78661 17.1709 9.91096 19.0171 10.8828Z" fill="#F0F1F2"/>
</svg>
